<svg width="16" height="16" viewBox="0 0 16 16" fill="none" xmlns="http://www.w3.org/2000/svg">
<path d="M16 13.92L11.733 9.684C12.3577 8.70733 12.7183 7.55067 12.7183 6.31133C12.719 2.832 9.86584 0 6.35916 0C2.85249 0 0 2.832 0 6.312C0 9.79267 2.85249 12.6247 6.35916 12.6247C7.54664 12.6247 8.65687 12.3 9.60927 11.736L13.9051 16L16 13.92ZM2.36957 6.312C2.36957 4.13 4.15952 2.35333 6.35849 2.35333C8.55814 2.35333 10.3481 4.12933 10.3481 6.312C10.3481 8.49533 8.55814 10.2713 6.35849 10.2713C4.15952 10.2713 2.36957 8.49533 2.36957 6.312Z" fill="#FF385C"/>
</svg>
